<svg xmlns="http://www.w3.org/2000/svg" width="740" height="417" viewBox="0 0 740 417"><title>TroubleshootingWirelessDisplayAdapters_color_740x417</title><rect x="1" width="740" height="417" fill="#f2f2f2"/><rect x="1" width="740" height="417" fill="#fff"/><rect x="507.8653" y="110.11972" width="37.75232" height="27.85283" transform="translate(1053.48292 248.09227) rotate(-180)" fill="#d8b094"/><path d="M591.86,327.35V417H535.42l-4.94-49.45a3.75888,3.75888,0,0,0-7.48,0L518.06,417H461.62V327.35Z" fill="#613d30"/><path d="M381.631,202.77168h62.99919a19.82,19.82,0,1,1,0,39.63994H381.631Z" fill="#b3dbf2"/><polygon points="402.159 208.435 396.496 214.097 402.159 219.76 402.159 242.412 385.17 242.412 385.17 202.772 402.159 202.772 402.159 208.435" fill="#83beec"/><rect x="364.64242" y="202.77168" width="20.52783" height="39.63994" fill="#d8b094"/><path d="M608.83617,265.06854a22.67552,22.67552,0,0,0,21.99193-28.1511l-22.65139-90.60558A22.65175,22.65175,0,0,0,564.226,157.30022l22.6514,90.60558A22.66219,22.66219,0,0,0,608.83617,265.06854Z" fill="#b3dbf2"/><path d="M444.64674,242.41715a22.661,22.661,0,0,0,21.95875-17.16275L483.594,157.30022a22.65175,22.65175,0,0,0-43.95068-10.98836L422.65482,214.266a22.67552,22.67552,0,0,0,21.99192,28.15111Z" fill="#b3dbf2"/><circle cx="526.74146" cy="61.20046" r="53.79706" fill="#d8b094"/><path d="M580.53852,61.20046a53.54549,53.54549,0,0,1-8.04561,28.31475l-.44866-.00051a2.82979,2.82979,0,0,1-2.83143-2.83142V55.53761h-8.49427a2.82979,2.82979,0,0,1-2.83142-2.83142V49.87476a5.65958,5.65958,0,0,1-5.66285-5.66284V24.392a11.31918,11.31918,0,0,1-11.3257,11.32569H472.9444A28.298,28.298,0,0,1,501.25864,7.4034h25.48282A53.76613,53.76613,0,0,1,580.53852,61.20046Z" fill="#613d30"/><polygon points="591.864 140.48 586.201 129.155 543.73 129.155 526.741 137.649 509.753 129.155 461.619 129.155 461.619 335.849 521.08 335.849 526.741 330.186 532.403 335.849 591.864 335.849 591.864 140.48" fill="#b3dbf2"/><path d="M538.06694,61.37548a5.66291,5.66291,0,1,1-5.66262,5.6629A5.66314,5.66314,0,0,1,538.06694,61.37548Z" fill="#1f1f1f"/><path d="M492.76408,61.37548a5.66291,5.66291,0,1,1-5.66262,5.6629A5.66313,5.66313,0,0,1,492.76408,61.37548Z" fill="#1f1f1f"/><path d="M509.75291,77.52616a5.66285,5.66285,0,0,0,11.3257,0Z" fill="#bb9167"/><rect x="528.29946" y="125.3933" width="28.02967" height="16.01695" transform="translate(64.51087 422.54659) rotate(-45)" fill="#83beec"/><rect x="503.16015" y="119.38695" width="16.01695" height="28.02967" transform="translate(55.38852 400.52328) rotate(-45)" fill="#83beec"/><path d="M560.71855,55.53761a5.66285,5.66285,0,0,1,11.3257,0v11.3257a5.66285,5.66285,0,0,1-11.3257,0Z" fill="#d8b094"/><path d="M586.20137,350.00574a5.64213,5.64213,0,0,0,4.00381-1.659l11.3257-11.32569a5.66225,5.66225,0,1,0-8.00762-8.00763l-11.3257,11.3257a5.66285,5.66285,0,0,0,4.00381,9.66666Z" fill="#d8b094"/><path d="M591.86422,321.6915v-73.617a19.82,19.82,0,0,1,39.63994,0v73.617Z" fill="#b3dbf2"/><circle cx="611.68419" cy="352.83717" r="19.81997" fill="#d8b094"/><rect x="591.86422" y="321.6915" width="39.63994" height="31.14567" fill="#d8b094"/><path d="M364.62721,242.41715A19.83983,19.83983,0,0,0,383.87066,217.786l-2.12357-8.49427a19.81969,19.81969,0,1,0-38.45649,9.61135l2.12357,8.49428A19.82987,19.82987,0,0,0,364.62721,242.41715Z" fill="#d8b094"/><polygon points="597.527 304.703 603.19 310.366 608.853 304.703 631.504 304.703 631.504 321.691 591.864 321.691 591.864 304.703 597.527 304.703" fill="#83beec"/><circle cx="526.74146" cy="148.97462" r="2.83142" fill="#83beec"/><circle cx="526.74146" cy="177.28886" r="2.83142" fill="#83beec"/><circle cx="526.74146" cy="205.6031" r="2.83142" fill="#83beec"/><circle cx="526.74146" cy="233.91734" r="2.83142" fill="#83beec"/><circle cx="526.74146" cy="262.23159" r="2.83142" fill="#83beec"/><circle cx="526.74146" cy="290.54583" r="2.83142" fill="#83beec"/><circle cx="526.74146" cy="318.86007" r="2.83142" fill="#83beec"/><path d="M438.36694,199.63848V251.5999a20.20722,20.20722,0,1,0,40.41444,0V199.63848Z" fill="#613d30"/><rect x="438.36694" y="196.75173" width="40.41444" height="5.77349" fill="#ffb900"/><path d="M383.99816,177.28637h44.608a0,0,0,0,1,0,0v63.72571a22.304,22.304,0,0,1-22.304,22.304h0a22.304,22.304,0,0,1-22.304-22.304V177.28637a0,0,0,0,1,0,0Z" transform="translate(-52.28702 162.76829) rotate(-21.31625)" fill="#eba300"/><path d="M405.65259,157.29163l-12.86476,5.03372-4.64716,1.80676L364.08975,173.512l-3.65764-9.37992-1.5494-4.00114a22.49936,22.49936,0,0,1-1.54835-8.08893,21.63529,21.63529,0,0,1,.38656-4.08727,22.32025,22.32025,0,0,1,42.72568-4.04472Z" fill="#d8b094"/><polygon points="414.919 181.026 408.981 183.343 403.045 185.659 373.362 197.242 364.096 173.495 405.652 157.28 414.919 181.026" fill="#ffb900"/><path d="M473.42065,208.54237h7.21109a.80123.80123,0,0,1,.80123.80123v4.00616a.80123.80123,0,0,1-.80123.80123h-7.21109a0,0,0,0,1,0,0v-5.60863A0,0,0,0,1,473.42065,208.54237Z" fill="#2b2b2b"/><path d="M271.91143,381.54341H389.18891a6.51541,6.51541,0,0,1,6.51541,6.51541v0a0,0,0,0,1,0,0H265.396a0,0,0,0,1,0,0v0A6.51541,6.51541,0,0,1,271.91143,381.54341Z" fill="#ccc"/><rect x="156" y="150.57983" width="360" height="205.71429" rx="7.56303" ry="7.56303" fill="#757575"/><rect x="150" y="150.57983" width="360" height="205.71429" rx="7.56303" ry="7.56303" fill="#a6a6a6"/><path d="M398.82353,197.09244H510a0,0,0,0,1,0,0V309.78151a0,0,0,0,1,0,0H398.82353a7.563,7.563,0,0,1-7.563-7.563v-97.563A7.563,7.563,0,0,1,398.82353,197.09244Z" fill="#757575"/><path d="M394.28571,302.21849V203.14286a6.05043,6.05043,0,0,1,6.05042-6.05042h-1.5126a7.563,7.563,0,0,0-7.563,7.563v97.563a7.563,7.563,0,0,0,7.563,7.563h3.02521A7.563,7.563,0,0,1,394.28571,302.21849Z" fill="#474746"/><path d="M464.62185,240.57983h24.20168A13.61343,13.61343,0,0,1,502.437,254.19326v0a13.61343,13.61343,0,0,1-13.61343,13.61343H406.76471" fill="none" stroke="#2b2b2b" stroke-miterlimit="10" stroke-width="3.78151"/><path d="M392.77311,229.61345h71.09244a1.51261,1.51261,0,0,1,1.51261,1.51261v18.90756a1.51261,1.51261,0,0,1-1.51261,1.51261H392.77311a0,0,0,0,1,0,0V229.61345A0,0,0,0,1,392.77311,229.61345Z" fill="#2b2b2b"/><path d="M392.77311,260.62185h15.88235a1.51261,1.51261,0,0,1,1.51261,1.51261v12.10084a1.51261,1.51261,0,0,1-1.51261,1.51261H392.77311a0,0,0,0,1,0,0V260.62185A0,0,0,0,1,392.77311,260.62185Z" fill="#2b2b2b"/><path d="M408.65546,265.15966h6.80672a.7563.7563,0,0,1,.7563.7563v3.78151a.7563.7563,0,0,1-.7563.7563h-6.80672a0,0,0,0,1,0,0v-5.29412A0,0,0,0,1,408.65546,265.15966Z" fill="#2b2b2b"/><line x1="169.66387" y1="170.62185" x2="490.33613" y2="170.62185" fill="none" stroke="#ccc" stroke-linecap="round" stroke-miterlimit="10" stroke-width="6.05042"/><rect x="265.39602" y="388.05882" width="130.3083" height="3.94118" fill="#a6a6a6"/><path d="M364.00842,223.563H303.50421a6.05041,6.05041,0,0,0-6.05041,6.05041V383.89917h72.605V229.6134A6.05041,6.05041,0,0,0,364.00842,223.563Zm-12.85717,37.81518a17.3949,17.3949,0,0,1-17.3949,17.3949h-.00006a17.395,17.395,0,0,1-17.395-17.3949v-.75634a17.395,17.395,0,0,1,17.395-17.395h.00006a17.39492,17.39492,0,0,1,17.3949,17.395Z" fill="#757575"/><path d="M361.00842,223.563H300.50421a6.05041,6.05041,0,0,0-6.05041,6.05041V383.89917h72.605V229.6134A6.05041,6.05041,0,0,0,361.00842,223.563Zm-12.85717,37.81518a17.3949,17.3949,0,0,1-17.3949,17.3949h-.00006a17.395,17.395,0,0,1-17.395-17.3949v-.75634a17.395,17.395,0,0,1,17.395-17.395h.00006a17.39492,17.39492,0,0,1,17.3949,17.395Z" fill="#ccc"/><path d="M393.86348,145.6312v7.465a11.03594,11.03594,0,0,1-11.03594,11.036H368.3703a11.03594,11.03594,0,0,1-11.03594-11.036V152.042a21.63529,21.63529,0,0,1,.38656-4.08727Z" fill="#d8b094"/><rect x="96" y="392" width="437" height="25" fill="#bb9167"/><rect x="533" y="392" width="94" height="25" fill="#8e562e"/><path d="M520.96807,99.60268a2.88674,2.88674,0,0,1,0-5.77349,12.12713,12.12713,0,0,0,9.32413-4.72761,2.88615,2.88615,0,0,1,4.4457,3.68173A17.78857,17.78857,0,0,1,520.96807,99.60268Z" fill="#bb9167"/></svg>